<?xml version="1.0" encoding="UTF-8" standalone="no"?>
<!-- Created with Inkscape (http://www.inkscape.org/) -->

<svg
   width="139.45119mm"
   height="63.877167mm"
   viewBox="0 0 139.45119 63.877167"
   version="1.1"
   id="svg1"
   xmlns:inkscape="http://www.inkscape.org/namespaces/inkscape"
   xmlns:sodipodi="http://sodipodi.sourceforge.net/DTD/sodipodi-0.dtd"
   xmlns="http://www.w3.org/2000/svg"
   xmlns:svg="http://www.w3.org/2000/svg">
  <sodipodi:namedview
     id="namedview1"
     pagecolor="#000080fff"
     bordercolor="#999999"
     borderopacity="1"
     inkscape:showpageshadow="2"
     inkscape:pageopacity="0"
     inkscape:pagecheckerboard="0"
     inkscape:deskcolor="#d1d1d1"
     inkscape:document-units="mm"
     showguides="true"
     inkscape:zoom="2.8284271"
     inkscape:cx="404.46508"
     inkscape:cy="528.73909"
     inkscape:window-width="1920"
     inkscape:window-height="991"
     inkscape:window-x="-9"
     inkscape:window-y="-9"
     inkscape:window-maximized="1"
     inkscape:current-layer="svg1" />
  <defs
     id="defs1" />
  <g
     inkscape:label="Layer 1"
     inkscape:groupmode="layer"
     id="layer1"
     transform="translate(-47.26019,-65.644575)">
    <path
       d="m 59.154563,90.608755 c -0.410504,0 -0.81614,0.02102 -1.215947,0.06201 -0.399806,0.041 -0.793692,0.10192 -1.180806,0.181901 -0.387114,0.07998 -0.767038,0.178639 -1.139465,0.295589 -0.372428,0.11695 -0.737211,0.252203 -1.092957,0.40411 -0.355746,0.151906 -0.702659,0.320545 -1.03973,0.505395 -0.33707,0.18485 -0.664418,0.385734 -0.980819,0.601514 -0.3164,0.215779 -0.62197,0.446735 -0.915706,0.69143 -0.284638,0.237117 -0.556526,0.488453 -0.818038,0.750863 -0.0084,0.008 -0.01802,0.0154 -0.02636,0.0238 -0.03518,0.0355 -0.06551,0.0757 -0.100252,0.11162 -0.230964,0.23901 -0.456934,0.48332 -0.66766,0.74104 -0.242422,0.29648 -0.470938,0.60513 -0.684712,0.92449 -0.213774,0.31936 -0.412698,0.64938 -0.59583,0.9896 -0.183131,0.34023 -0.350767,0.69048 -0.501261,1.04955 -0.150494,0.35907 -0.284113,0.72738 -0.399976,1.10329 -0.115862,0.37591 -0.213769,0.75959 -0.293005,1.150323 -0.07924,0.39073 -0.139735,0.78812 -0.180351,1.19166 -0.04062,0.40354 -0.0615,0.81298 -0.0615,1.22731 v 0.001 5.44256 0.42995 6.13296 h 5.955709 v -0.0584 -0.20567 -1.35082 -0.19431 -9.33379 -0.83768 c -3.6e-5,-0.008 -0.0026,-0.0163 -0.0026,-0.0248 v -0.001 c 0,-0.41408 0.04177,-0.8183 0.120923,-1.20871 0.07916,-0.3904 0.195888,-0.76681 0.346232,-1.12551 0.150345,-0.358703 0.334209,-0.699573 0.54777,-1.018543 0.190779,-0.28495 0.412818,-0.54553 0.648023,-0.79272 0.02809,-0.0295 0.04884,-0.0656 0.07751,-0.0946 0.015,-0.0151 0.03394,-0.0259 0.04909,-0.0408 0.256501,-0.25336 0.531989,-0.48799 0.83044,-0.69143 0.316086,-0.21546 0.653848,-0.40076 1.009241,-0.55242 0.355393,-0.15166 0.728448,-0.26949 1.115178,-0.34933 0.386729,-0.0798 0.78673,-0.12196 1.196826,-0.12196 0.410096,0 0.810667,0.0421 1.197343,0.12196 0.386676,0.0798 0.759876,0.19767 1.115177,0.34933 0.355301,0.15166 0.692753,0.33696 1.008724,0.55242 0.315972,0.21546 0.610329,0.46102 0.879016,0.73225 0.268687,0.27123 0.511573,0.56831 0.725021,0.88729 0.213447,0.31898 0.397516,0.65984 0.54777,1.018543 0.150253,0.3587 0.274943,0.73361 0.346232,1.12551 0.03863,0.21235 0.240453,0.19176 0.272334,-0.15944 0.04086,-0.4501 0.112737,-0.89269 0.201021,-1.328093 0.08828,-0.4354 0.197502,-0.8632 0.326595,-1.28209 0.129093,-0.41889 0.278287,-0.82925 0.445968,-1.22938 0.16768,-0.40013 0.354059,-0.79031 0.558105,-1.16944 0.204047,-0.37913 0.425852,-0.7469 0.664042,-1.10277 0.113872,-0.17014 0.243536,-0.32804 0.364836,-0.49248 0.03357,-0.0455 0.06664,-0.0914 0.100769,-0.13643 -0.115004,-0.12645 -0.222915,-0.25948 -0.343132,-0.38085 -0.269015,-0.2716 -0.551234,-0.529936 -0.844909,-0.774632 -0.293676,-0.244695 -0.598847,-0.475651 -0.91519,-0.69143 -0.316343,-0.21578 -0.643801,-0.416664 -0.980819,-0.601514 -0.337018,-0.18485 -0.684029,-0.353489 -1.039729,-0.505395 -0.355701,-0.151907 -0.72005,-0.28716 -1.09244,-0.40411 -0.37239,-0.11695 -0.752378,-0.215609 -1.139466,-0.295589 -0.387087,-0.07998 -0.781531,-0.140904 -1.181323,-0.181901 -0.399792,-0.041 -0.805442,-0.06201 -1.215946,-0.06201 z"
       style="opacity:1;fill:#000080;fill-opacity:1;stroke-width:0.566699;paint-order:stroke fill markers"
       id="path103"
       sodipodi:nodetypes="csssssssscssssssssscccccccccccssssssscsssssssssssssssssscsssssssscc" />
    <path
       d="m 149.94027,90.566399 c -0.4105,0 -0.81615,0.02102 -1.21595,0.06201 -0.3998,0.041 -0.79422,0.101922 -1.18132,0.181901 -0.38711,0.07998 -0.76705,0.178641 -1.13947,0.295589 -0.37242,0.116948 -0.73722,0.252206 -1.09295,0.40411 -0.35574,0.151903 -0.70267,0.320549 -1.03973,0.505395 -0.33707,0.184845 -0.66443,0.385739 -0.98082,0.601514 -0.3164,0.215773 -0.62198,0.44674 -0.91571,0.691429 -0.28463,0.237112 -0.55653,0.488457 -0.81804,0.75086 -0.008,0.0084 -0.018,0.01536 -0.0264,0.02377 -0.0352,0.03551 -0.0655,0.07567 -0.10025,0.111621 -0.084,0.08698 -0.16146,0.180239 -0.24288,0.269751 -0.0422,0.04638 -0.0846,0.09248 -0.12609,0.139527 -0.0984,0.111667 -0.20438,0.21642 -0.29869,0.331761 -0.16317,0.199557 -0.31062,0.412116 -0.46096,0.622186 -0.0337,0.04711 -0.0703,0.09191 -0.10335,0.139526 -0.0385,0.05552 -0.0828,0.106575 -0.12041,0.16278 -0.21377,0.319361 -0.4127,0.649382 -0.59583,0.989604 -0.18313,0.340222 -0.35076,0.690478 -0.50126,1.049549 -0.15049,0.35907 -0.28411,0.727385 -0.39997,1.103291 -0.11586,0.375908 -0.21377,0.759588 -0.29301,1.150307 -0.0792,0.39073 -0.13973,0.78812 -0.18035,1.19166 -0.0406,0.40353 -0.0615,0.81298 -0.0615,1.22731 0,0.41433 0.0209,0.82378 0.0615,1.22732 0.0406,0.40353 0.10112,0.80145 0.18035,1.19217 0.0792,0.39073 0.17715,0.77443 0.29301,1.15032 0.11586,0.37591 0.24948,0.74422 0.39997,1.10329 0.1505,0.35907 0.31813,0.70881 0.50126,1.04904 0.18313,0.34022 0.38206,0.67076 0.59583,0.99012 0.0377,0.0563 0.0823,0.10717 0.12093,0.16278 0.033,0.0475 0.0692,0.0925 0.10283,0.13953 0.15034,0.21007 0.29779,0.42262 0.46096,0.62219 0.0943,0.11534 0.20025,0.22009 0.29869,0.33176 0.0415,0.047 0.0839,0.0932 0.12609,0.13953 0.11508,0.1265 0.22283,0.25994 0.34313,0.38137 0.26907,0.2716 0.55065,0.52992 0.84439,0.77463 0.29374,0.24469 0.59931,0.47565 0.91571,0.69143 0.3164,0.21577 0.64374,0.41665 0.98082,0.60151 0.33707,0.18485 0.68398,0.35349 1.03973,0.5054 0.35574,0.1519 0.72052,0.28716 1.09295,0.40411 0.37243,0.11695 0.75235,0.21561 1.13947,0.29559 0.38711,0.08 0.78151,0.1409 1.18132,0.1819 0.39981,0.041 0.80544,0.062 1.21595,0.062 0.4105,0 0.81615,-0.021 1.21594,-0.062 0.3998,-0.041 0.79372,-0.10192 1.18081,-0.1819 0.38709,-0.08 0.76707,-0.17864 1.13947,-0.29559 0.37239,-0.11695 0.73725,-0.25221 1.09295,-0.40411 0.3557,-0.15191 0.7022,-0.32055 1.03921,-0.5054 0.093,-0.051 0.17929,-0.11245 0.27079,-0.16588 v 1.35082 0.20567 0.0584 h 5.934 0.0191 v -0.24236 -0.65526 -0.22738 -1.48156 -0.20619 -3.31866 -0.42943 -5.44463 -5.2e-4 c 0,-0.41432 -0.0209,-0.82378 -0.0615,-1.22731 -0.0406,-0.40353 -0.10063,-0.80094 -0.17983,-1.19166 -0.0792,-0.390719 -0.17719,-0.774419 -0.29301,-1.150316 -0.11582,-0.3759 -0.24953,-0.744228 -0.39998,-1.103292 -0.15044,-0.359065 -0.31767,-0.709333 -0.50074,-1.049549 -0.18307,-0.340216 -0.38212,-0.670249 -0.59583,-0.989603 -0.0374,-0.05589 -0.0816,-0.106534 -0.11989,-0.161748 -0.033,-0.04753 -0.0692,-0.0925 -0.10283,-0.139526 -0.15056,-0.210477 -0.29856,-0.423292 -0.46199,-0.623218 -0.094,-0.114998 -0.19955,-0.219382 -0.29766,-0.330729 -0.0416,-0.04716 -0.0838,-0.09356 -0.12609,-0.140043 -0.11524,-0.126735 -0.22317,-0.260257 -0.34365,-0.381889 -0.26901,-0.271592 -0.55124,-0.52994 -0.84491,-0.774631 -0.29367,-0.24469 -0.59885,-0.475656 -0.91519,-0.691429 -0.31633,-0.215775 -0.6438,-0.416668 -0.98082,-0.601514 -0.33701,-0.184846 -0.68352,-0.353492 -1.03921,-0.505395 -0.35569,-0.151904 -0.72057,-0.287162 -1.09295,-0.40411 -0.37239,-0.116948 -0.75239,-0.215611 -1.13947,-0.295589 -0.38708,-0.07998 -0.78102,-0.140905 -1.18081,-0.181901 -0.39978,-0.041 -0.80545,-0.06201 -1.21594,-0.06201 z m 0,5.925736 c 0.41581,0 0.82179,0.04252 1.21388,0.123507 0.39208,0.08098 0.7704,0.200167 1.13068,0.353984 0.36028,0.153816 0.70278,0.342187 1.02319,0.560689 0.32041,0.218501 0.61895,0.467552 0.89142,0.74259 0.27247,0.275038 0.5189,0.576262 0.73535,0.899686 0.21646,0.32343 0.40315,0.66935 0.55553,1.033009 0.15237,0.36366 0.27066,0.74526 0.35088,1.14102 0.0802,0.39574 0.12247,0.80554 0.12247,1.22523 v 5.2e-4 c -2e-5,0.28841 -0.0457,0.5646 -0.0842,0.84233 -0.0175,0.12625 -0.0132,0.25927 -0.0382,0.38292 -0.0802,0.39581 -0.19851,0.77777 -0.35088,1.14153 -0.15238,0.36376 -0.33907,0.70947 -0.55553,1.03301 -0.19396,0.28992 -0.4196,0.55526 -0.65887,0.80667 -0.0278,0.0292 -0.0482,0.0649 -0.0765,0.0935 -0.0153,0.0155 -0.0346,0.0265 -0.0501,0.0418 -0.25988,0.25688 -0.53892,0.49443 -0.84129,0.70074 -0.32041,0.21861 -0.66291,0.4073 -1.02319,0.5612 -0.36028,0.15391 -0.7386,0.27347 -1.13068,0.3545 -0.39209,0.081 -0.79807,0.12351 -1.21388,0.12351 -0.41582,0 -0.82226,-0.0425 -1.2144,-0.12351 -0.39213,-0.081 -0.77031,-0.20059 -1.13068,-0.3545 -0.36037,-0.1539 -0.70319,-0.34259 -1.02371,-0.5612 -0.32052,-0.21862 -0.61883,-0.46744 -0.89142,-0.74259 -0.27259,-0.27516 -0.5193,-0.57667 -0.73587,-0.90021 -0.21657,-0.32354 -0.40357,-0.66926 -0.55604,-1.03301 -0.15246,-0.36375 -0.27061,-0.74573 -0.35088,-1.14153 -0.0803,-0.39581 -0.12247,-0.80607 -0.12247,-1.22577 0,-0.41969 0.0422,-0.8295 0.12247,-1.22523 0.0803,-0.39575 0.19842,-0.77736 0.35088,-1.14102 0.15246,-0.363659 0.33947,-0.709589 0.55604,-1.033009 0.19378,-0.289396 0.41938,-0.55412 0.65836,-0.805119 0.0281,-0.02951 0.0488,-0.06563 0.0775,-0.09457 0.015,-0.01514 0.0339,-0.02585 0.0491,-0.04082 0.26028,-0.257162 0.53945,-0.495289 0.84233,-0.701766 0.32052,-0.218502 0.66334,-0.406873 1.02371,-0.560689 0.36037,-0.153817 0.73854,-0.273001 1.13068,-0.353984 0.39214,-0.08098 0.79858,-0.123507 1.2144,-0.123507 z"
       style="opacity:1;fill:#000080;fill-opacity:1;stroke-width:0.566591;paint-order:stroke fill markers"
       id="path105" />
    <path
       d="m 78.053117,90.73348 c -0.404782,0 -0.805186,0.02058 -1.19941,0.06098 -0.394225,0.0404 -0.782568,0.100506 -1.16427,0.179317 -0.381701,0.07881 -0.756749,0.17621 -1.123963,0.291455 -0.158177,0.04964 -0.308834,0.115432 -0.464054,0.171566 -0.205125,0.07418 -0.413731,0.141125 -0.613399,0.226343 -0.350759,0.1497 -0.692921,0.316502 -1.025261,0.498677 -0.332339,0.182177 -0.654912,0.380058 -0.966866,0.592729 -0.311954,0.212671 -0.613701,0.43991 -0.903304,0.681095 -0.28042,0.233538 -0.548501,0.48156 -0.806152,0.740007 -0.0084,0.0085 -0.01794,0.0158 -0.02636,0.02429 -0.0351,0.03543 -0.06559,0.07523 -0.100252,0.111104 -0.08983,0.09297 -0.172636,0.192454 -0.259416,0.288355 -0.04208,0.0465 -0.08474,0.09235 -0.12609,0.139526 -0.08914,0.101696 -0.185627,0.196503 -0.271302,0.301274 -0.172074,0.210426 -0.328701,0.43402 -0.486275,0.65629 -0.03336,0.04706 -0.07015,0.09144 -0.102836,0.13901 -0.02737,0.03983 -0.0594,0.07609 -0.0863,0.116272 -0.210757,0.314849 -0.407016,0.640208 -0.587561,0.975651 -0.180543,0.335442 -0.345661,0.681022 -0.494026,1.035079 -0.148368,0.354058 -0.280069,0.717098 -0.394292,1.087789 -0.04448,0.144341 -0.07647,0.293975 -0.112654,0.441833 -0.0065,0.02646 -0.01333,0.05276 -0.02015,0.07906 -0.05296,0.204295 -0.113807,0.405471 -0.156063,0.613918 -0.01319,0.065 -0.01785,0.133 -0.02997,0.19844 -0.05971,0.32221 -0.114511,0.64635 -0.147795,0.9772 -0.04004,0.39805 -0.06046,0.80151 -0.06046,1.21026 0,0.40875 0.02042,0.81271 0.06046,1.21078 0.03329,0.3309 0.08808,0.65545 0.147795,0.97772 0.01212,0.0654 0.01679,0.13343 0.02997,0.19843 0.04224,0.20839 0.103133,0.40917 0.156063,0.6134 0.04496,0.17347 0.08035,0.35063 0.132808,0.5209 0.03601,0.11687 0.08457,0.2278 0.124024,0.34313 0.08571,0.25059 0.168662,0.50267 0.270268,0.74518 0.148372,0.35411 0.313475,0.69905 0.494026,1.03456 0.180553,0.33552 0.376795,0.66125 0.587561,0.97617 0.0269,0.0402 0.05892,0.0764 0.0863,0.11627 0.03269,0.0476 0.06948,0.0919 0.102836,0.13901 0.157581,0.22232 0.314193,0.44582 0.486275,0.65629 0.08565,0.10477 0.182196,0.19958 0.271302,0.30127 0.04126,0.0471 0.08359,0.0931 0.125573,0.13953 0.120382,0.13308 0.233971,0.27257 0.360185,0.39998 0.265298,0.26778 0.542892,0.52304 0.832507,0.76429 0.289616,0.24126 0.591337,0.46887 0.903304,0.68161 0.311967,0.21274 0.634513,0.4105 0.966866,0.59273 0.332354,0.18225 0.674488,0.34892 1.025261,0.49868 0.350773,0.14975 0.710225,0.28262 1.077453,0.39791 0.367228,0.11528 0.742246,0.21313 1.123963,0.29197 0.381717,0.0789 0.770029,0.13891 1.16427,0.17932 0.39424,0.0404 0.794612,0.061 1.19941,0.061 0.404798,0 0.804667,-0.0206 1.198893,-0.061 0.246267,-0.0252 0.485972,-0.0718 0.727604,-0.11214 0.145178,-0.0243 0.293926,-0.0376 0.437183,-0.0672 0.381698,-0.0788 0.756248,-0.17668 1.123446,-0.29197 0.335,-0.10518 0.661507,-0.22937 0.982885,-0.36329 0.03089,-0.0129 0.06382,-0.0215 0.09457,-0.0346 0.09335,-0.0399 0.180732,-0.0906 0.272852,-0.13281 0.253979,-0.11643 0.508549,-0.23213 0.752409,-0.36587 0.332307,-0.18224 0.654948,-0.37999 0.966866,-0.59273 0.198577,-0.13544 0.384958,-0.28691 0.574642,-0.43408 0.108262,-0.084 0.222929,-0.15986 0.328145,-0.24753 0.0022,-0.002 0.004,-0.004 0.0062,-0.006 0.277751,-0.2318 0.543527,-0.47756 0.798918,-0.73381 l -1.466577,-1.46658 -0.502295,-0.50177 -2.086695,-2.0867 c -0.129951,0.12845 -0.264595,0.25169 -0.404626,0.36897 -0.126098,0.10561 -0.258134,0.20435 -0.393258,0.29869 -0.01493,0.0104 -0.02836,0.0228 -0.04341,0.0331 -0.09918,0.0677 -0.204215,0.12683 -0.307475,0.18862 -0.06355,0.038 -0.124101,0.0806 -0.189136,0.11627 -0.170699,0.0937 -0.346426,0.17936 -0.526582,0.25632 -0.180156,0.077 -0.364844,0.14538 -0.553455,0.20464 -0.188611,0.0593 -0.381167,0.10934 -0.577226,0.14986 -0.196058,0.0405 -0.395428,0.0712 -0.597896,0.092 -0.03924,0.004 -0.07991,0.003 -0.119373,0.006 -0.164176,0.0136 -0.328984,0.0253 -0.49661,0.0253 -0.207921,0 -0.413397,-0.0108 -0.615983,-0.0315 -0.202586,-0.0208 -0.402332,-0.0515 -0.598413,-0.092 -0.196082,-0.0405 -0.388638,-0.0906 -0.577226,-0.14986 -0.188589,-0.0593 -0.373256,-0.12768 -0.553455,-0.20464 -0.180198,-0.077 -0.355783,-0.16259 -0.526582,-0.25632 -0.170801,-0.0937 -0.336854,-0.19557 -0.497128,-0.30489 -0.160272,-0.10931 -0.314837,-0.22646 -0.463537,-0.35036 -0.148702,-0.12392 -0.291577,-0.25463 -0.427881,-0.39223 -0.136304,-0.13758 -0.265796,-0.28182 -0.388607,-0.43201 -0.122811,-0.15021 -0.238973,-0.30641 -0.347266,-0.46819 -0.08385,-0.12527 -0.140361,-0.26831 -0.214974,-0.39998 h 0.09405 5.386751 2.597774 0.04858 0.212907 0.15813 1.827795 0.09457 0.723987 0.371037 0.06666 0.191203 1.211296 0.170532 1.015958 0.37052 2.001429 c 0.05291,-0.20423 0.113836,-0.40501 0.156063,-0.6134 0.01318,-0.065 0.01786,-0.13303 0.02997,-0.19843 0.0597,-0.32228 0.11452,-0.64682 0.147794,-0.97772 0.04003,-0.39807 0.06046,-0.80203 0.06046,-1.21078 0,-0.40874 -0.02043,-0.81222 -0.06046,-1.21026 -0.03327,-0.33087 -0.08811,-0.655 -0.147794,-0.9772 -0.01212,-0.0654 -0.01679,-0.13339 -0.02997,-0.19844 -0.04224,-0.208445 -0.103128,-0.409623 -0.156063,-0.613918 -0.04493,-0.173377 -0.08039,-0.350722 -0.132809,-0.520898 -0.07708,-0.250243 -0.173343,-0.491478 -0.266133,-0.734322 -0.04467,-0.116899 -0.07996,-0.238412 -0.128158,-0.353467 -0.02443,-0.05831 -0.05582,-0.112691 -0.08113,-0.170532 -0.128384,-0.293375 -0.261605,-0.58434 -0.412378,-0.864547 -0.180497,-0.335453 -0.376854,-0.660794 -0.587561,-0.975651 -0.02663,-0.0398 -0.05817,-0.07579 -0.08527,-0.115238 -0.03282,-0.04778 -0.06986,-0.09226 -0.103353,-0.139527 -0.116595,-0.16453 -0.237539,-0.325663 -0.359668,-0.485758 -0.043,-0.05637 -0.08177,-0.11621 -0.126607,-0.171049 -0.05249,-0.0642 -0.109885,-0.12395 -0.166398,-0.184485 -0.03546,-0.03798 -0.07013,-0.07665 -0.104387,-0.115755 -0.04134,-0.04719 -0.0835,-0.09353 -0.125573,-0.140044 -0.120454,-0.133182 -0.234396,-0.272483 -0.360702,-0.399975 -0.265228,-0.267723 -0.542961,-0.523106 -0.832507,-0.764295 -0.169197,-0.140938 -0.350617,-0.266625 -0.527617,-0.397908 -0.117898,-0.08745 -0.230215,-0.182021 -0.351399,-0.2651 -0.0082,-0.0056 -0.01553,-0.01247 -0.02377,-0.01809 -0.311899,-0.212673 -0.634578,-0.410551 -0.966866,-0.592729 -0.33229,-0.182177 -0.674546,-0.348976 -1.025261,-0.498677 -0.106636,-0.04552 -0.219395,-0.07853 -0.327628,-0.120923 -0.247734,-0.09703 -0.494291,-0.19678 -0.749825,-0.276986 -0.184938,-0.05805 -0.377213,-0.09787 -0.565857,-0.146761 -0.185895,-0.04818 -0.368153,-0.105578 -0.557589,-0.144694 -0.381675,-0.07881 -0.770576,-0.138922 -1.164787,-0.179317 -0.394209,-0.0404 -0.794111,-0.06098 -1.198893,-0.06098 z m 0,5.757788 c 0.207916,0 0.413514,0.01025 0.615983,0.03101 0.202469,0.02075 0.401848,0.05201 0.597896,0.0925 0.163574,0.03378 0.323179,0.0778 0.481625,0.12454 0.03146,0.0093 0.06436,0.01501 0.0956,0.0248 0.188612,0.05914 0.373307,0.127727 0.553455,0.204639 0.180147,0.07691 0.355882,0.162173 0.526582,0.255798 0.170701,0.09363 0.3364,0.195637 0.496611,0.304891 0.16021,0.109256 0.31532,0.225902 0.464054,0.34985 0.07067,0.05889 0.135269,0.124474 0.203089,0.186552 0.07492,0.06858 0.152765,0.134004 0.224275,0.206189 0.03226,0.03257 0.06042,0.06905 0.09198,0.102319 0.101723,0.107245 0.203483,0.214619 0.29714,0.329179 0.122716,0.150104 0.238,0.30647 0.346232,0.468188 0.08372,0.125093 0.140471,0.267975 0.214974,0.399459 h -0.09457 -1.114144 -0.402559 -2.711463 -3.75791 -0.261999 -1.670699 -0.312643 -0.09457 c 0.07455,-0.131484 0.131212,-0.274367 0.214974,-0.399459 0.0969,-0.144703 0.202156,-0.283308 0.312643,-0.417028 0.110486,-0.133721 0.226222,-0.262586 0.345715,-0.38809 0.0281,-0.02951 0.04884,-0.06563 0.07752,-0.09457 0.015,-0.01514 0.03393,-0.02585 0.04909,-0.04082 0.130146,-0.128585 0.264967,-0.252524 0.405144,-0.370003 0.140176,-0.117478 0.285735,-0.228521 0.437182,-0.331763 0.160269,-0.109254 0.326323,-0.211264 0.497128,-0.304891 0.123871,-0.0679 0.252996,-0.126331 0.381888,-0.185518 0.04884,-0.02242 0.09518,-0.04915 0.144694,-0.07028 0.180194,-0.07691 0.364861,-0.145496 0.553455,-0.204639 0.188593,-0.05914 0.381149,-0.108853 0.577226,-0.149344 0.196075,-0.04049 0.395821,-0.07175 0.598413,-0.0925 0.202591,-0.02075 0.408067,-0.03101 0.615983,-0.03101 z"
       style="opacity:1;fill:#000080;fill-opacity:1;paint-order:stroke fill markers"
       id="path227" />
    <path
       d="m 174.81867,90.566651 c -0.20526,0 -0.40967,0.0051 -0.61237,0.0155 -0.2027,0.01038 -0.40367,0.02601 -0.60358,0.04651 -0.1999,0.0205 -0.39847,0.04613 -0.59531,0.07648 -0.19684,0.03035 -0.39194,0.06543 -0.58549,0.10542 -0.19356,0.03999 -0.38563,0.08456 -0.57568,0.133842 -0.19005,0.04928 -0.37809,0.103271 -0.56431,0.161747 -0.18621,0.05848 -0.37033,0.121715 -0.55242,0.189136 -0.18209,0.06742 -0.36214,0.13902 -0.54002,0.214974 -0.17787,0.07595 -0.35377,0.156041 -0.5271,0.240295 -0.17333,0.08425 -0.34409,0.172675 -0.51263,0.2651 -0.16853,0.09242 -0.33464,0.189088 -0.49816,0.289388 -0.16352,0.1003 -0.32446,0.204236 -0.48266,0.312126 -0.1582,0.107889 -0.31397,0.219565 -0.46663,0.334863 -0.15266,0.115298 -0.30221,0.23422 -0.44907,0.356567 -0.14228,0.118523 -0.28167,0.240705 -0.41806,0.36587 -0.13639,0.125164 -0.26978,0.253312 -0.4005,0.384472 -0.008,0.0085 -0.018,0.0158 -0.0264,0.02429 -0.0352,0.03552 -0.0655,0.07566 -0.10025,0.111621 -0.0841,0.08701 -0.16144,0.180211 -0.24288,0.269751 -0.0421,0.04631 -0.0842,0.09256 -0.12558,0.139527 -0.0985,0.1117 -0.20435,0.216385 -0.29869,0.331762 -0.0817,0.09987 -0.1595,0.203052 -0.23564,0.307475 -0.0761,0.104423 -0.15059,0.210089 -0.22583,0.315226 -0.0336,0.04691 -0.0699,0.09159 -0.10283,0.13901 -0.0385,0.05552 -0.0828,0.106575 -0.12041,0.162781 -0.10688,0.159679 -0.21007,0.322355 -0.30954,0.487308 -0.0995,0.164954 -0.19524,0.332185 -0.28681,0.502295 -0.0916,0.170111 -0.17903,0.342823 -0.26251,0.517798 -0.0835,0.174976 -0.16298,0.352216 -0.23823,0.531751 -0.0752,0.179535 -0.14621,0.361752 -0.21291,0.545703 -0.0667,0.183951 -0.12914,0.369636 -0.18707,0.557589 -0.0579,0.187953 -0.11133,0.377723 -0.16019,0.569473 -0.0489,0.19175 -0.0932,0.38548 -0.13281,0.580839 -0.0396,0.19536 -0.0748,0.39255 -0.1049,0.59118 -0.0301,0.19863 -0.0551,0.39871 -0.0754,0.60048 -0.0203,0.20176 -0.0357,0.40519 -0.046,0.60978 -0.0103,0.2046 -0.0155,0.41037 -0.0155,0.61753 v 5.2e-4 5.44308 0.42995 1.38027 0.26149 1.67948 0.20722 1.48105 0.22738 0.89555 h 4.49069 0.26148 1.20096 v -0.0594 -0.20515 -1.35134 -0.19379 -9.35343 c -0.0192,-0.13836 -0.0402,-0.27618 -0.0563,-0.41548 -0.0161,-0.13931 -0.0273,-0.28009 -0.0274,-0.42375 0,-0.001 -5.1e-4,-0.002 -5.1e-4,-0.003 v -5.2e-4 c 0,-10e-4 5.1e-4,-0.002 5.1e-4,-0.004 1.3e-4,-0.20922 0.0106,-0.41634 0.031,-0.62012 0.0204,-0.20378 0.0509,-0.40421 0.0909,-0.60151 0.0402,-0.1979 0.0901,-0.3926 0.14883,-0.58291 0.0588,-0.19032 0.12633,-0.37626 0.20257,-0.55811 0.0762,-0.18185 0.16098,-0.359389 0.25373,-0.531749 0.0927,-0.17236 0.1935,-0.33953 0.30179,-0.50126 0.0969,-0.144711 0.20164,-0.283304 0.31213,-0.417027 0.11048,-0.133723 0.22672,-0.262577 0.34623,-0.38809 0.0281,-0.02951 0.0488,-0.06563 0.0775,-0.09457 0.015,-0.01513 0.0339,-0.02585 0.0491,-0.04082 0.13015,-0.128596 0.26483,-0.252524 0.40514,-0.370003 0.14031,-0.11748 0.28624,-0.228513 0.4377,-0.331763 0.16027,-0.109261 0.32593,-0.211263 0.49661,-0.304891 0.17068,-0.09363 0.34638,-0.178883 0.52658,-0.255798 0.18021,-0.07692 0.36473,-0.145496 0.55346,-0.204639 0.18872,-0.05914 0.38165,-0.10885 0.57774,-0.149345 0.19608,-0.0405 0.39543,-0.07175 0.59789,-0.0925 0.20247,-0.02075 0.40806,-0.03101 0.61599,-0.03101 0.20792,0 0.41338,0.01025 0.61598,0.03101 0.2026,0.02075 0.40235,0.05201 0.59841,0.0925 0.19606,0.04049 0.38861,0.0902 0.57723,0.149345 0.18862,0.05914 0.3733,0.127723 0.55345,0.204639 0.18016,0.07691 0.35588,0.16217 0.52659,0.255798 0.1707,0.09363 0.33639,0.19563 0.49661,0.304891 0.16022,0.109261 0.3148,0.2259 0.46354,0.349849 0.14873,0.12395 0.29163,0.255209 0.42788,0.392741 0.13625,0.137532 0.26589,0.281392 0.3886,0.431498 0.12272,0.150107 0.23851,0.306461 0.34675,0.468185 0.10824,0.16173 0.20863,0.32891 0.30128,0.50126 0.0926,0.17236 0.17753,0.349909 0.25373,0.531759 0.0762,0.18185 0.14379,0.36779 0.20257,0.55811 0.0588,0.19031 0.10871,0.38501 0.14883,0.58291 0.0401,0.19789 0.0705,0.39921 0.0909,0.60358 0.0205,0.20437 0.031,0.4118 0.031,0.62166 h 5.86941 c 0,-0.20716 -0.005,-0.41345 -0.0155,-0.61805 -0.0103,-0.20459 -0.0257,-0.40749 -0.046,-0.60926 -0.0203,-0.20177 -0.0459,-0.40237 -0.076,-0.601 -0.0301,-0.19863 -0.0648,-0.3953 -0.10438,-0.59066 -0.0396,-0.195369 -0.0839,-0.389099 -0.13281,-0.580849 -0.0489,-0.19175 -0.10228,-0.38152 -0.1602,-0.569471 -0.0579,-0.187955 -0.12036,-0.374156 -0.18707,-0.558106 -0.0667,-0.18395 -0.13768,-0.365649 -0.2129,-0.545186 -0.0752,-0.179538 -0.15474,-0.356776 -0.23823,-0.531751 -0.0835,-0.174974 -0.17098,-0.347685 -0.26252,-0.517798 -0.0915,-0.170112 -0.18706,-0.337859 -0.28629,-0.502811 -0.0992,-0.164952 -0.20217,-0.327111 -0.30902,-0.486792 -0.10686,-0.159682 -0.2176,-0.316631 -0.33176,-0.470773 -0.11417,-0.154141 -0.23177,-0.305475 -0.35295,-0.453719 -0.12118,-0.148243 -0.24609,-0.293478 -0.37414,-0.435632 -0.12806,-0.142154 -0.25927,-0.281229 -0.39378,-0.417029 -0.1345,-0.135799 -0.27213,-0.268271 -0.41289,-0.397392 -0.14076,-0.12912 -0.28466,-0.25489 -0.4315,-0.377238 -0.14684,-0.122347 -0.29691,-0.241269 -0.44958,-0.356567 -0.15268,-0.115298 -0.30795,-0.226974 -0.46613,-0.334863 -0.15817,-0.10789 -0.31925,-0.212343 -0.48265,-0.312643 -0.16341,-0.100299 -0.32914,-0.196446 -0.49765,-0.288871 -0.16851,-0.09243 -0.3398,-0.180846 -0.51314,-0.2651 -0.17335,-0.08425 -0.34874,-0.164342 -0.52659,-0.240295 -0.17785,-0.07595 -0.35792,-0.148071 -0.54002,-0.215491 -0.18209,-0.06742 -0.36622,-0.130144 -0.55242,-0.188619 -0.18619,-0.05848 -0.37424,-0.112467 -0.5643,-0.161747 -0.19006,-0.04928 -0.38213,-0.09385 -0.57568,-0.133842 -0.19354,-0.03999 -0.38865,-0.07558 -0.58549,-0.105937 -0.19684,-0.03035 -0.39542,-0.05547 -0.59532,-0.07596 -0.19989,-0.0205 -0.40139,-0.03613 -0.60409,-0.04651 -0.2027,-0.01038 -0.4066,-0.0155 -0.61185,-0.0155 z"
       style="opacity:1;fill:#000080;fill-opacity:1;stroke-width:0.566591;paint-order:stroke fill markers"
       id="path108" />
    <path
       d="m 66.105526,107.38776 c -0.125156,-0.31505 -0.247355,-0.63213 -0.347783,-0.95808 -0.07556,-0.24528 -0.112681,-0.44056 -0.146761,-0.57206 -0.04515,-0.17423 -0.113158,-0.39382 -0.169498,-0.67179 -0.03359,-0.1657 -0.03779,-0.23964 -0.03359,-0.21704 v -0.002 c -0.06194,-0.3343 -0.123397,-0.68904 -0.161747,-1.07022 -0.04387,-0.43621 -0.0646,-0.87916 -0.0646,-1.32602 0,-0.44686 0.02073,-0.88835 0.0646,-1.32446 0.0052,-0.0514 0.01574,-0.0938 0.0217,-0.14418 l -10.51202,11.50162 3.585828,3.27939 z"
       style="opacity:1;fill:#f7b801;fill-opacity:1;paint-order:stroke fill markers"
       id="path117" />
    <path
       d="m 114.1212,65.644572 c -2.48685,1.380356 -2.16182,3.602224 0.17679,4.911845 l 10.50063,0.02325 -7.984,12.090218 0.006,-0.01188 c 0,0 -1.50346,2.25192 -1.86449,2.792594 -0.28354,0.424637 -1.00627,1.506871 -1.46451,2.193148 -0.0857,0.128378 -0.18293,0.27409 -0.27388,0.410311 -0.48961,0.733263 -0.85857,1.286418 -1.47433,2.208651 -0.1137,0.17028 -0.15521,0.232308 -0.27234,0.407727 -0.63023,0.943906 -0.76054,1.139025 -1.46502,2.194181 -0.13112,0.19638 -0.14004,0.209311 -0.27286,0.408244 -0.70335,1.05348 -0.71678,1.073609 -1.44384,2.162658 -0.008,0.0115 -0.0135,0.02054 -0.0212,0.03204 -0.0981,0.146884 -0.17427,0.261346 -0.27234,0.408244 -0.52712,0.789626 -0.94643,1.417884 -1.46451,2.194181 -0.0965,0.144622 -0.17696,0.265076 -0.27285,0.40876 -0.51472,0.7713 -0.97656,1.464141 -1.46399,2.194696 -0.0907,0.13597 -0.18339,0.27416 -0.27285,0.40825 -0.4843,0.72588 -1.03736,1.55462 -1.47537,2.21123 -0.21476,0.32195 -0.52265,0.78311 -0.72347,1.08417 -0.49637,0.74415 -0.50002,0.75039 -0.88263,1.32395 l -1.588534,-2.43706 -1.451591,-2.22725 -0.2682,-0.41135 -1.44229,-2.212781 -0.2682,-0.411345 -1.441773,-2.212785 -0.268717,-0.411344 -1.441773,-2.212785 -0.2682,-0.411344 -1.44229,-2.212268 -0.2682,-0.411861 -1.447974,-2.22157 -0.269234,-0.413412 -1.441256,-2.210717 -3.499528,-5.369182 -9.06973,9.923425 c 0.386077,-0.0765 0.775922,-0.140638 1.173571,-0.181384 0.433106,-0.04438 0.872706,-0.06615 1.316199,-0.06615 0.443495,0 0.883201,0.02229 1.316199,0.06666 0.432738,0.04434 0.860016,0.110273 1.279508,0.196887 0.406802,0.084 0.805868,0.189331 1.19786,0.311092 l 2.141988,-2.344043 0.519348,0.796851 1.497583,2.298051 0.260966,0.400492 1.519287,2.331124 0.260966,0.401009 1.543575,2.367814 0.259933,0.398942 1.601969,2.458765 0.261483,0.401009 1.746147,2.6789 0.279052,0.4284 2.470134,3.79098 2.209167,3.38894 2.340945,3.59255 0.36432,0.55914 0.30282,0.46457 0.30024,-0.46406 0.36122,-0.55862 1.36994,-2.1177 c 0.003,-0.005 0.72565,-1.08852 0.97514,-1.46347 3.8e-4,-2.8e-4 6.4e-4,-7.6e-4 0.001,-0.001 0.4948,-0.74364 0.83164,-1.25198 1.93166,-2.90111 0.0747,-0.11205 0.19248,-0.28853 0.26924,-0.4036 0.7177,-1.07593 1.66764,-2.49872 2.51819,-3.77341 0.0982,-0.14711 0.19107,-0.28674 0.29042,-0.43563 0.60504,-0.90672 1.13661,-1.70321 1.76992,-2.652031 0.097,-0.145272 0.17352,-0.260469 0.27078,-0.406177 0.30378,-0.455094 0.54177,-0.811732 0.84646,-1.26814 0.39493,-0.591554 0.39378,-0.589477 0.78445,-1.174605 0.13181,-0.197418 0.13376,-0.200411 0.26459,-0.396358 0.77259,-1.157121 0.85424,-1.279513 1.56269,-2.340426 0.11986,-0.179497 0.14742,-0.220384 0.26458,-0.395841 0.68646,-1.027962 0.98459,-1.474248 1.54926,-2.319756 0.0965,-0.144444 0.17253,-0.258517 0.26459,-0.396358 0.53067,-0.794589 1.16933,-1.751381 1.52549,-2.284615 0.54058,-0.809372 2.31562,-3.467488 2.31562,-3.467488 l 0.004,-0.0062 7.7463,-11.728999 3.16156,9.213391 c 1.94104,1.566867 4.11042,1.119084 4.6483,-1.593702 l -4.39043,-12.796118 -0.91261,-2.659269 -0.16226,-0.107487 -2.91765,-0.0057 z"
       style="opacity:1;fill:#f7b801;fill-opacity:1;paint-order:stroke fill markers"
       id="path212"
       sodipodi:nodetypes="cccccsscsssscccsssssscccccccccccccccccssssccccccccccccccccccccccccscssssssscssscccccccccc" />
  </g>
  <path
     d="m 84.69041,23.548947 v 0.172083 1.259354 0.205673 1.350821 c -0.0915,-0.05343 -0.17776,-0.114863 -0.27078,-0.165881 -0.33702,-0.184849 -0.68403,-0.353489 -1.03973,-0.505395 -0.3557,-0.151906 -0.72005,-0.287161 -1.09244,-0.40411 -0.37239,-0.11695 -0.75238,-0.215609 -1.13947,-0.295589 -0.38708,-0.07998 -0.78152,-0.140906 -1.18132,-0.181901 -0.39979,-0.041 -0.80545,-0.06201 -1.21595,-0.06201 -0.4105,0 -0.81614,0.02102 -1.21594,0.06201 -0.39981,0.041 -0.79369,0.101921 -1.18081,0.181901 -0.38711,0.07998 -0.76704,0.178639 -1.13947,0.295589 -0.37242,0.116949 -0.7372,0.252203 -1.09295,0.40411 -0.21734,0.09281 -0.42459,0.203846 -0.63511,0.309025 -0.13405,0.06698 -0.27349,0.124455 -0.40462,0.19637 -0.33707,0.184847 -0.66441,0.385736 -0.98082,0.601514 -0.28607,0.195097 -0.56024,0.406436 -0.82786,0.625285 -0.0284,0.0232 -0.0597,0.04269 -0.0879,0.06614 -0.0845,0.07037 -0.16059,0.149933 -0.24288,0.222726 -0.19498,0.172483 -0.39126,0.343604 -0.57515,0.528133 -0.008,0.0084 -0.018,0.01536 -0.0264,0.02377 -0.0352,0.03551 -0.0655,0.07567 -0.10025,0.111621 -0.0841,0.08698 -0.16145,0.18024 -0.24288,0.269751 -0.0422,0.04638 -0.0846,0.09248 -0.12609,0.139527 -0.0984,0.111666 -0.20438,0.216422 -0.29869,0.331762 -0.16325,0.199662 -0.31055,0.412516 -0.46096,0.622701 -0.007,0.01032 -0.0151,0.02035 -0.0227,0.03049 -0.0271,0.03603 -0.0549,0.07145 -0.0806,0.108521 -0.0385,0.05552 -0.0828,0.106577 -0.1204,0.162781 -0.0253,0.03781 -0.0454,0.0792 -0.0703,0.117305 -0.18535,0.283767 -0.36411,0.57236 -0.52555,0.872298 -0.18313,0.340215 -0.35078,0.690488 -0.50126,1.049549 -0.15049,0.359062 -0.28412,0.727395 -0.39998,1.103292 -7.3e-4,0.0024 -10e-4,0.0049 -0.002,0.0072 -0.0675,0.219376 -0.11543,0.446753 -0.17053,0.671277 -0.0387,0.15785 -0.0879,0.311541 -0.12041,0.471805 -0.0792,0.3907 -0.13974,0.78814 -0.18035,1.19166 -0.0406,0.40352 -0.0615,0.813 -0.0615,1.22731 0,0.41433 0.0209,0.8238 0.0615,1.22732 0.0406,0.40352 0.10113,0.80146 0.18035,1.19217 0.0792,0.39073 0.17715,0.77443 0.29301,1.15032 0.11586,0.37589 0.24949,0.74424 0.39998,1.10329 0.0676,0.16133 0.15092,0.31375 0.2253,0.47129 0.0912,0.1931 0.17511,0.39039 0.27596,0.57775 0.005,0.009 0.0104,0.0163 0.015,0.0248 0.17931,0.3312 0.37244,0.65397 0.58085,0.96532 0.0377,0.0563 0.0823,0.10717 0.12092,0.16278 0.0329,0.0474 0.0693,0.0921 0.10283,0.13901 0.15041,0.21017 0.29771,0.42304 0.46096,0.6227 0.0943,0.11533 0.20026,0.22009 0.29869,0.33176 0.0415,0.047 0.0839,0.0932 0.12609,0.13953 0.10761,0.11828 0.20987,0.24164 0.32091,0.35656 0.008,0.008 0.0144,0.0169 0.0222,0.0248 0.0952,0.096 0.20042,0.18116 0.29869,0.27388 0.17961,0.16945 0.35586,0.3426 0.5457,0.50075 0.29372,0.24468 0.59932,0.47566 0.91571,0.69143 0.24149,0.16469 0.49508,0.31205 0.74879,0.45889 0.0787,0.0455 0.15224,0.0989 0.23203,0.14262 0.0395,0.0217 0.0821,0.0382 0.12195,0.0594 0.29954,0.15979 0.60379,0.31189 0.91778,0.44597 0.35574,0.1519 0.72054,0.28716 1.09295,0.40411 0.14473,0.0454 0.29589,0.0748 0.44287,0.11472 0.23123,0.0628 0.45994,0.13197 0.6966,0.18087 0.38711,0.08 0.78102,0.1409 1.18081,0.1819 0.39978,0.041 0.80546,0.062 1.21594,0.062 0.41049,0 0.81617,-0.021 1.21595,-0.062 0.39978,-0.041 0.79425,-0.10193 1.18132,-0.1819 0.38707,-0.08 0.76709,-0.17865 1.13947,-0.29559 0.37238,-0.11695 0.73675,-0.25221 1.09244,-0.40411 0.35569,-0.1519 0.70272,-0.32055 1.03973,-0.5054 0.33701,-0.18484 0.66449,-0.38574 0.98082,-0.60151 0.31632,-0.21577 0.62152,-0.44674 0.91519,-0.69143 0.284,-0.23665 0.55603,-0.48747 0.817,-0.74931 0.009,-0.009 0.0191,-0.0164 0.0279,-0.0253 0.0347,-0.035 0.0645,-0.0746 0.0987,-0.11007 0.0849,-0.0879 0.16322,-0.18189 0.24546,-0.27234 0.0421,-0.0463 0.0842,-0.0926 0.12557,-0.13952 0.0981,-0.11135 0.20365,-0.21574 0.29766,-0.33073 0.16366,-0.20022 0.31176,-0.41347 0.4625,-0.62425 0.0334,-0.0467 0.0696,-0.0913 0.10232,-0.1385 0.0383,-0.0552 0.0825,-0.10586 0.11989,-0.16174 0.21371,-0.31935 0.41225,-0.64993 0.59532,-0.99012 0.18306,-0.34021 0.35082,-0.68998 0.50126,-1.04904 0.15044,-0.35904 0.28364,-0.7274 0.39946,-1.10329 0.11582,-0.37589 0.21379,-0.7596 0.293,-1.15032 0.0792,-0.3907 0.13975,-0.78865 0.18035,-1.19217 0.0406,-0.40335 0.0615,-0.81266 0.0615,-1.2268 v -5.2e-4 -5.444107 -0.429432 -1.37976 -0.262517 -1.674833 -0.207739 -1.481563 -0.227893 -2.270663 h -5.86269 z m -5.93969,7.382495 c 0.20505,0 0.40798,0.0105 0.60772,0.03101 0.19974,0.02051 0.39629,0.05103 0.58963,0.09095 0.19333,0.03992 0.38342,0.0894 0.56947,0.147794 0.18605,0.05839 0.36805,0.125708 0.5457,0.201538 0.17765,0.07583 0.35108,0.159967 0.51935,0.252181 0.16827,0.09221 0.33139,0.192513 0.48938,0.30024 0.15798,0.107729 0.31066,0.222972 0.45733,0.345199 0.14668,0.122227 0.28734,0.251443 0.42168,0.387056 0.13434,0.135614 0.26245,0.27777 0.38344,0.425814 0.12099,0.148044 0.23486,0.301982 0.34158,0.461471 0.10673,0.159485 0.20618,0.324105 0.29766,0.494026 0.0915,0.169922 0.17499,0.345164 0.25011,0.524514 0.0751,0.17934 0.1421,0.36313 0.19999,0.55087 0.0579,0.18774 0.1067,0.37944 0.14625,0.57464 0.0396,0.19521 0.0697,0.3937 0.0899,0.59531 0.0202,0.20162 0.0305,0.40637 0.0305,0.6134 v 5.2e-4 c -2e-5,0.20694 -0.0103,0.41123 -0.0305,0.61288 -0.0202,0.20166 -0.0504,0.40069 -0.0899,0.59583 -0.0395,0.19523 -0.0884,0.38692 -0.14625,0.57464 -0.0579,0.18773 -0.12486,0.37149 -0.19999,0.55087 -0.0751,0.1794 -0.15863,0.35397 -0.25011,0.524 -0.0915,0.17003 -0.19094,0.33553 -0.29766,0.49506 -0.0954,0.14267 -0.19862,0.279 -0.30747,0.41083 -0.10886,0.13183 -0.22338,0.25918 -0.34107,0.38292 -0.0278,0.0293 -0.0481,0.0654 -0.0765,0.0941 -0.0153,0.0154 -0.0347,0.0261 -0.0501,0.0413 -0.12808,0.12657 -0.26048,0.24813 -0.39843,0.3638 -0.13795,0.11567 -0.28145,0.22545 -0.43046,0.32711 -0.15798,0.10778 -0.32111,0.20792 -0.48938,0.30024 -0.16827,0.0923 -0.3417,0.17682 -0.51935,0.2527 -0.17765,0.0759 -0.35965,0.14303 -0.5457,0.20154 -0.18605,0.0585 -0.37614,0.10836 -0.56947,0.14831 -0.19334,0.04 -0.38989,0.0701 -0.58963,0.0904 -0.19974,0.0204 -0.40267,0.031 -0.60772,0.031 -0.20504,0 -0.40759,-0.0106 -0.60719,-0.031 -0.19961,-0.0204 -0.39627,-0.0505 -0.58963,-0.0904 -0.15704,-0.0324 -0.31024,-0.0756 -0.46251,-0.12041 -0.0352,-0.0104 -0.072,-0.0169 -0.10697,-0.0279 -0.18603,-0.0585 -0.36801,-0.12567 -0.5457,-0.20154 -0.17769,-0.0759 -0.35097,-0.16038 -0.51935,-0.2527 -0.16838,-0.0923 -0.33185,-0.19246 -0.48989,-0.30024 -0.15804,-0.10778 -0.31057,-0.223 -0.45734,-0.3452 -0.13636,-0.11353 -0.2665,-0.23447 -0.39222,-0.35967 -0.01,-0.01 -0.0204,-0.0178 -0.03,-0.0274 -0.11082,-0.11187 -0.21444,-0.231 -0.31626,-0.3514 -0.0217,-0.0256 -0.0459,-0.0489 -0.0672,-0.0749 -0.12109,-0.14814 -0.23532,-0.30192 -0.3421,-0.46147 -0.10678,-0.15953 -0.2062,-0.32503 -0.29766,-0.49506 -0.0914,-0.17003 -0.17494,-0.3446 -0.25011,-0.524 -0.0752,-0.17938 -0.14212,-0.36314 -0.19999,-0.55087 -0.0579,-0.18772 -0.10666,-0.37942 -0.14624,-0.57464 -0.0396,-0.19522 -0.0696,-0.39409 -0.0899,-0.59583 -0.0203,-0.20174 -0.031,-0.40636 -0.031,-0.6134 0,-0.20703 0.0107,-0.41178 0.031,-0.6134 0.0203,-0.20161 0.0504,-0.40011 0.0899,-0.59531 0.0396,-0.1952 0.0889,-0.3869 0.14676,-0.57464 0.0579,-0.18774 0.1243,-0.37153 0.19947,-0.55087 0.0752,-0.17935 0.15866,-0.354592 0.25011,-0.524514 0.0134,-0.02486 0.0297,-0.0477 0.0434,-0.07235 0.08,-0.143816 0.16309,-0.285525 0.25425,-0.421679 0.008,-0.01199 0.0177,-0.02271 0.0258,-0.03462 0.0885,-0.129547 0.18203,-0.255627 0.28163,-0.376205 0.10876,-0.131662 0.22295,-0.258298 0.34055,-0.381889 0.0281,-0.02952 0.0488,-0.06563 0.0775,-0.09457 0.015,-0.01513 0.0339,-0.02585 0.0491,-0.04082 0.12825,-0.126678 0.26122,-0.249078 0.39946,-0.364836 0.13824,-0.115757 0.28176,-0.224877 0.43098,-0.326595 0.15804,-0.107727 0.32152,-0.208025 0.48989,-0.30024 0.0343,-0.01879 0.0712,-0.03303 0.10594,-0.05116 0.13564,-0.07082 0.27192,-0.140643 0.41341,-0.201022 0.1777,-0.07583 0.35968,-0.143143 0.5457,-0.201538 0.18603,-0.05839 0.37611,-0.107874 0.56948,-0.147794 0.19336,-0.03992 0.39002,-0.07044 0.58963,-0.09095 0.1996,-0.02051 0.40214,-0.03101 0.60719,-0.03101 z"
     style="opacity:1;fill:#000080;fill-opacity:1;paint-order:stroke fill markers"
     id="path228" />
  <g
     id="g247"
     style="fill:#7678ed;fill-opacity:1"
     transform="translate(-47.26019,-65.644575)">
    <path
       d="m 91.161877,100.93492 c -0.101548,0.26908 -0.201776,0.53878 -0.28422,0.81701 -0.107226,0.36186 -0.198,0.73084 -0.271301,1.10639 -0.0733,0.37555 -0.129356,0.75741 -0.166915,1.14463 -0.03756,0.38723 -0.05684,0.7798 -0.05684,1.17668 0,0.39687 0.01928,0.78943 0.05684,1.17667 0.03756,0.38724 0.09361,0.76957 0.166915,1.14515 0.0733,0.37558 0.164075,0.74449 0.271301,1.10639 0.107226,0.3619 0.23067,0.71679 0.370003,1.06299 0.139334,0.34618 0.294431,0.68387 0.464055,1.01234 0.169623,0.32847 0.353807,0.64729 0.551904,0.95601 0.198096,0.30872 0.409834,0.60705 0.634587,0.894 0.224751,0.28695 0.46251,0.56264 0.712101,0.82579 0.24959,0.26316 0.511321,0.51404 0.783931,0.75138 0.272612,0.23734 0.556262,0.46126 0.850078,0.67076 0.293814,0.2095 0.597854,0.40482 0.911055,0.58446 0.313202,0.17964 0.63558,0.34368 0.966349,0.49144 0.330771,0.14776 0.669953,0.27889 1.016476,0.39274 0.346521,0.11385 0.70046,0.21043 1.060917,0.28836 0.360457,0.0779 0.727098,0.13727 1.099677,0.17725 0.37257,0.04 0.7509,0.0605 1.13378,0.0605 0.38294,0 0.76116,-0.0205 1.13378,-0.0605 0.37261,-0.04 0.73971,-0.0993 1.10019,-0.17725 0.36048,-0.0779 0.71439,-0.17451 1.06092,-0.28836 0.34653,-0.11385 0.68571,-0.24498 1.01647,-0.39274 0.33076,-0.14776 0.65317,-0.3118 0.96635,-0.49144 0.31318,-0.17964 0.61676,-0.37496 0.91054,-0.58446 0.29379,-0.2095 0.57751,-0.43342 0.85008,-0.67076 0.27257,-0.23734 0.53438,-0.48822 0.78393,-0.75138 0.24955,-0.26315 0.48688,-0.53884 0.71158,-0.82579 0.22471,-0.28695 0.43654,-0.58528 0.63459,-0.894 0.19805,-0.30872 0.38233,-0.62754 0.55191,-0.95601 0.16957,-0.32847 0.32476,-0.66616 0.46405,-1.01234 0.13929,-0.3462 0.26281,-0.70109 0.37,-1.06299 0.10719,-0.3619 0.19803,-0.73081 0.2713,-1.10639 0.0733,-0.37558 0.12886,-0.75791 0.1664,-1.14515 0.0375,-0.38724 0.0568,-0.7798 0.0568,-1.17667 0,-0.39688 -0.0194,-0.78945 -0.0568,-1.17668 -0.0375,-0.38722 -0.0931,-0.76908 -0.1664,-1.14463 -0.0733,-0.37555 -0.16411,-0.74453 -0.2713,-1.10639 -0.0684,-0.23092 -0.15455,-0.45333 -0.23616,-0.678 -0.70643,1.05855 -1.3269,1.98798 -1.98747,2.97812 0.008,0.0687 0.023,0.13492 0.0294,0.20412 0.0289,0.30339 0.0439,0.61121 0.0439,0.92346 0,0.31225 -0.0151,0.62057 -0.0439,0.92397 -0.0289,0.3034 -0.0719,0.60191 -0.12816,0.89504 -0.0563,0.29312 -0.12599,0.58105 -0.20825,0.86248 -0.0823,0.28143 -0.17691,0.55644 -0.28371,0.82475 -0.10679,0.26831 -0.22565,0.52964 -0.35553,0.78342 -0.12988,0.25377 -0.27067,0.50012 -0.4222,0.73794 -0.15152,0.23781 -0.31351,0.46738 -0.48524,0.68781 -0.17172,0.22043 -0.35315,0.43193 -0.54363,0.63355 -0.19049,0.20163 -0.3901,0.39326 -0.5979,0.57464 -0.2078,0.1814 -0.42384,0.35237 -0.64751,0.51212 -0.22366,0.15975 -0.45488,0.30825 -0.69298,0.44493 -0.23809,0.13668 -0.48324,0.26144 -0.73432,0.37362 -0.25107,0.11219 -0.5084,0.2119 -0.77101,0.29818 -0.23017,0.0756 -0.46584,0.13651 -0.70383,0.1912 l -1.78904,2.76624 -1.807127,-2.77296 c -0.229345,-0.0535 -0.457494,-0.11152 -0.679545,-0.18448 -0.262571,-0.0863 -0.519457,-0.18599 -0.770496,-0.29818 -0.251039,-0.11218 -0.496259,-0.23694 -0.734322,-0.37362 -0.238063,-0.13668 -0.469338,-0.28518 -0.692981,-0.44493 -0.223642,-0.15975 -0.439211,-0.33072 -0.646989,-0.51212 -0.207777,-0.18138 -0.407428,-0.37301 -0.597896,-0.57464 -0.190469,-0.20162 -0.371921,-0.41312 -0.543636,-0.63355 -0.171715,-0.22043 -0.333724,-0.45 -0.485242,-0.68781 -0.151517,-0.23782 -0.292838,-0.48417 -0.422713,-0.73794 -0.129875,-0.25378 -0.248228,-0.51511 -0.355017,-0.78342 -0.106789,-0.26831 -0.201962,-0.54332 -0.284221,-0.82475 -0.08226,-0.28143 -0.151972,-0.56936 -0.208256,-0.86248 -0.05628,-0.29313 -0.09878,-0.59164 -0.12764,-0.89504 -0.02886,-0.3034 -0.04393,-0.61172 -0.04393,-0.92397 0,-0.31225 0.01505,-0.62007 0.04393,-0.92346 0.01028,-0.10808 0.03166,-0.21202 0.04547,-0.31884 z"
       style="opacity:1;fill:#7678ed;fill-opacity:1;paint-order:stroke fill markers"
       id="path231" />
    <path
       d="m 114.64933,99.009977 c 7.4e-4,-0.0024 10e-4,-0.0049 0.002,-0.0072 0.11586,-0.375903 0.24949,-0.744225 0.39998,-1.103292 0.15049,-0.359067 0.31813,-0.709329 0.50126,-1.049549 0.16145,-0.299942 0.34019,-0.588526 0.52555,-0.872298 -0.14269,-0.248157 -0.27617,-0.50274 -0.42892,-0.743624 -0.75277,1.127296 -0.81648,1.22292 -1.62884,2.439645 0.0323,0.061 0.0713,0.11728 0.10284,0.1788 0.19235,0.375067 0.36317,0.764051 0.52606,1.157552 z"
       style="opacity:1;fill:#7678ed;fill-opacity:1;paint-order:stroke fill markers"
       id="path243" />
    <path
       d="m 87.228784,95.211243 c 0.122132,0.160098 0.243071,0.321225 0.359668,0.485758 0.03349,0.04727 0.07053,0.09175 0.103353,0.139527 0.0271,0.03945 0.05864,0.07544 0.08527,0.115238 0.210711,0.314864 0.40706,0.640191 0.587561,0.975651 0.150776,0.280213 0.283991,0.571166 0.412378,0.864547 0.05149,-0.09237 0.106926,-0.181895 0.157613,-0.274919 L 87.331104,95.05673 c -0.02252,0.0346 -0.04902,0.066 -0.07131,0.100769 -0.01112,0.01735 -0.01994,0.03635 -0.03101,0.05374 z"
       style="opacity:1;fill:#7678ed;fill-opacity:1;paint-order:stroke fill markers"
       id="path242" />
    <path
       d="m 117.57887,111.03663 c -0.11104,-0.11492 -0.2133,-0.23828 -0.32091,-0.35656 -0.0422,-0.0463 -0.0846,-0.0925 -0.12609,-0.13953 -0.0984,-0.11167 -0.20439,-0.21642 -0.29869,-0.33176 -0.16325,-0.19966 -0.31055,-0.41252 -0.46096,-0.6227 -0.0335,-0.0469 -0.0699,-0.0916 -0.10283,-0.13901 -0.0386,-0.0556 -0.0832,-0.10648 -0.12092,-0.16278 -0.20841,-0.31136 -0.40154,-0.63412 -0.58085,-0.96532 -0.0953,0.488 -0.21069,0.96779 -0.3483,1.43712 -0.14102,0.48099 -0.30367,0.95184 -0.48679,1.41077 -0.18312,0.45893 -0.3865,0.90611 -0.60926,1.34048 -0.22276,0.43438 -0.46507,0.85564 -0.72502,1.26298 -0.25995,0.40733 -0.53782,0.80093 -0.83251,1.17874 -0.29469,0.3778 -0.60579,0.73994 -0.93276,1.08572 -0.32697,0.34578 -0.6695,0.67523 -1.02629,0.9865 -0.3568,0.31127 -0.72791,0.60423 -1.11208,0.8785 -0.38417,0.27427 -0.78154,0.52951 -1.19063,0.76429 -0.40909,0.23479 -0.82986,0.44954 -1.26142,0.64234 -0.43155,0.19281 -0.87393,0.36378 -1.3255,0.51212 -0.45156,0.14833 -0.9127,0.27379 -1.38183,0.37517 -0.46912,0.10138 -0.94617,0.17854 -1.4304,0.23047 -0.48423,0.0519 -0.97539,0.0785 -1.47226,0.0785 -0.49681,0 -0.98809,-0.0266 -1.472263,-0.0785 -0.484177,-0.0519 -0.961317,-0.12909 -1.430404,-0.23047 -0.469086,-0.10138 -0.92977,-0.22684 -1.381311,-0.37517 -0.45154,-0.14834 -0.893961,-0.31931 -1.3255,-0.51212 -0.431541,-0.1928 -0.852339,-0.40755 -1.261422,-0.64234 -0.409084,-0.23478 -0.806454,-0.49002 -1.190625,-0.76429 -0.384172,-0.27427 -0.755273,-0.56723 -1.112077,-0.8785 -0.356804,-0.31127 -0.699313,-0.64072 -1.026294,-0.9865 -0.326981,-0.34578 -0.638575,-0.70792 -0.933276,-1.08572 -0.294703,-0.37781 -0.572539,-0.77141 -0.832508,-1.17874 -0.259967,-0.40734 -0.501724,-0.8286 -0.724503,-1.26298 -0.222779,-0.43437 -0.426648,-0.88155 -0.609782,-1.34048 -0.183134,-0.45893 -0.345758,-0.92978 -0.486792,-1.41077 -0.141034,-0.48099 -0.260606,-0.97221 -0.357084,-1.47278 -0.09648,-0.50056 -0.169641,-1.01042 -0.219108,-1.52807 -0.03717,-0.38896 -0.04688,-0.78649 -0.05633,-1.18391 h -1.015958 -0.170532 -1.211296 -0.191203 -0.06666 c 0.0036,0.17623 0.0045,0.35314 0.01292,0.52814 0.01469,0.30478 0.03655,0.60772 0.06563,0.90847 0.02908,0.30074 0.06499,0.5992 0.108004,0.89555 0.04301,0.29635 0.09312,0.59061 0.149861,0.88212 0.04687,0.24078 0.10109,0.47893 0.157097,0.71623 l 1.466577,1.46658 c -0.255392,0.25625 -0.521167,0.50201 -0.798918,0.73381 0.05572,0.14985 0.109036,0.30114 0.168465,0.44906 0.21567,0.53682 0.455786,1.06086 0.718303,1.56993 0.262515,0.50908 0.547675,1.00333 0.854211,1.48157 0.306536,0.47824 0.634126,0.94009 0.981852,1.38441 0.347727,0.44432 0.715652,0.87116 1.101742,1.27847 0.386089,0.40732 0.790703,0.79551 1.212329,1.16272 0.421624,0.36722 0.860317,0.71313 1.314648,1.03715 0.227167,0.16201 0.458254,0.31849 0.692981,0.46922 0.234728,0.15074 0.473096,0.29573 0.715202,0.4346 0.242106,0.13887 0.487849,0.27178 0.736906,0.39843 0.249057,0.12664 0.501429,0.24703 0.75706,0.36121 0.255631,0.11419 0.514283,0.22223 0.77618,0.3235 0.261897,0.10126 0.527041,0.19575 0.794783,0.2837 0.267743,0.088 0.538072,0.16907 0.81132,0.2434 0.273248,0.0743 0.549417,0.14187 0.827857,0.20205 0.27844,0.0602 0.559604,0.11346 0.842842,0.15917 0.283239,0.0457 0.568555,0.0838 0.856279,0.11472 0.287724,0.0309 0.577877,0.0541 0.869717,0.0698 0.29182,0.0156 0.58548,0.0238 0.88108,0.0238 0.29562,0 0.58922,-0.008 0.88108,-0.0238 0.29186,-0.0156 0.58197,-0.0389 0.86972,-0.0698 0.28774,-0.0308 0.57304,-0.069 0.85627,-0.11472 0.28323,-0.0457 0.56439,-0.099 0.84285,-0.15917 0.27845,-0.0602 0.55448,-0.12772 0.82785,-0.20205 0.27337,-0.0743 0.54409,-0.15544 0.81184,-0.2434 0.26775,-0.088 0.5325,-0.18244 0.79427,-0.2837 0.26176,-0.10127 0.52054,-0.20931 0.77618,-0.3235 0.25563,-0.11418 0.508,-0.23457 0.75706,-0.36121 0.24905,-0.12665 0.4948,-0.25956 0.7369,-0.39843 0.24211,-0.13887 0.48086,-0.28386 0.71572,-0.4346 0.23486,-0.15073 0.46583,-0.30721 0.69298,-0.46922 0.45432,-0.32402 0.89305,-0.66993 1.31465,-1.03715 0.4216,-0.36721 0.82627,-0.7554 1.21233,-1.16272 0.38606,-0.40731 0.75353,-0.83415 1.10122,-1.27847 0.3477,-0.44432 0.67535,-0.90617 0.98186,-1.38441 0.3065,-0.47824 0.59172,-0.97249 0.85421,-1.48157 0.26248,-0.50907 0.50214,-1.03311 0.71778,-1.56993 0.10782,-0.2684 0.20984,-0.54023 0.30541,-0.81493 0.0344,-0.0988 0.0633,-0.20011 0.0961,-0.29973 z"
       style="opacity:1;fill:#7678ed;fill-opacity:1;paint-order:stroke fill markers"
       id="path233" />
    <path
       d="m 123.56613,98.183771 c -0.0347,0.01475 -0.0716,0.02636 -0.10594,0.04166 -0.16837,0.07509 -0.33185,0.156755 -0.48989,0.244474 -0.14923,0.08282 -0.29274,0.171676 -0.43098,0.265933 -0.13824,0.09426 -0.27121,0.19392 -0.39946,0.29707 -0.0152,0.0122 -0.0341,0.0209 -0.0491,0.0332 -0.0287,0.0236 -0.0494,0.053 -0.0775,0.077 -0.1176,0.10064 -0.23179,0.20375 -0.34055,0.31096 -0.0996,0.0982 -0.19308,0.20084 -0.28163,0.30633 0.0499,0.15053 0.10344,0.299722 0.14883,0.451922 0.0843,0.28283 0.16111,0.56846 0.22944,0.85671 0.0683,0.28825 0.12845,0.5794 0.18035,0.8727 0.0519,0.2933 0.0957,0.58903 0.13074,0.88701 0.035,0.29797 0.0613,0.59817 0.0791,0.90046 0.0177,0.30231 0.0269,0.60642 0.0269,0.91268 0,0.30626 -0.009,0.61079 -0.0269,0.9131 -0.009,0.14762 -0.026,0.29311 -0.0388,0.43971 0.12572,0.10194 0.25586,0.20042 0.39222,0.29286 0.14677,0.0995 0.2993,0.19333 0.45734,0.28109 0.15804,0.0878 0.32151,0.1693 0.48989,0.24447 0.16838,0.0752 0.34166,0.14398 0.51935,0.20576 0.17769,0.0618 0.35967,0.11647 0.5457,0.16411 0.035,0.009 0.0718,0.0143 0.10697,0.0227 0.0273,-0.18139 0.0589,-0.36169 0.0806,-0.54449 0.0394,-0.33212 0.0695,-0.66651 0.0894,-1.00314 0.0199,-0.33663 0.03,-0.67548 0.03,-1.01619 0,-0.34072 -0.01,-0.67914 -0.03,-1.01576 -0.0199,-0.33663 -0.05,-0.67145 -0.0894,-1.00357 -0.0394,-0.33211 -0.0879,-0.66165 -0.14625,-0.98883 -0.0583,-0.32718 -0.12625,-0.65188 -0.20308,-0.97369 -0.0768,-0.32182 -0.16303,-0.64082 -0.25787,-0.956862 -0.0948,-0.31603 -0.1982,-0.62893 -0.31058,-0.938758 -0.0709,-0.195585 -0.15117,-0.387651 -0.22892,-0.580678 z"
       style="opacity:1;fill:#7678ed;fill-opacity:1;stroke-width:0.902364;paint-order:stroke fill markers"
       id="path246" />
    <path
       d="m 118.53333,93.242371 c 0.26763,-0.218851 0.54178,-0.430186 0.82786,-0.625285 0.31641,-0.21578 0.64375,-0.416665 0.98082,-0.601514 0.13113,-0.07192 0.27057,-0.129393 0.40462,-0.19637 -0.0465,-0.07444 -0.0896,-0.151455 -0.13694,-0.22531 -0.20748,-0.323865 -0.42224,-0.642371 -0.64389,-0.95498 -0.21267,-0.299942 -0.43255,-0.594042 -0.65784,-0.88315 -0.38733,0.579922 -0.9894,1.481991 -1.55029,2.321822 0.0239,0.03339 0.0497,0.06516 0.0734,0.0987 0.19674,0.278214 0.38734,0.561664 0.57154,0.850077 0.0452,0.0708 0.0863,0.144652 0.13074,0.216008 z"
       style="opacity:1;fill:#7678ed;fill-opacity:1;paint-order:stroke fill markers"
       id="path245" />
    <path
       d="m 82.290068,91.542216 c 0.108236,0.04239 0.220989,0.0754 0.327628,0.120923 0.350725,0.149706 0.692962,0.316495 1.025261,0.498677 0.332297,0.182183 0.654958,0.38005 0.966866,0.592729 0.0082,0.0056 0.01555,0.01245 0.02377,0.01809 0.13189,-0.200242 0.262987,-0.401164 0.401009,-0.596346 0.07223,-0.102143 0.149363,-0.20003 0.223242,-0.300757 l -1.422135,-2.182296 -1.137915,1.244369 c -0.137569,0.200193 -0.275265,0.400399 -0.407727,0.604614 z"
       style="opacity:1;fill:#7678ed;fill-opacity:1;paint-order:stroke fill markers"
       id="path240" />
    <path
       d="m 81.386763,99.088525 c 0.06355,-0.174677 0.118927,-0.693036 0.18862,-0.865313 -0.06782,-0.0501 -0.13242,-0.10302 -0.203089,-0.150543 -0.148739,-0.100026 -0.303839,-0.194152 -0.464054,-0.282322 -0.160216,-0.08817 -0.325905,-0.170483 -0.496611,-0.246041 -0.170704,-0.07556 -0.34643,-0.144359 -0.526582,-0.206424 -0.180153,-0.06206 -0.364838,-0.117414 -0.553455,-0.165139 -0.03124,-0.0079 -0.06414,-0.01252 -0.0956,-0.02001 -0.01096,0.02513 -0.02378,0.04948 -0.03462,0.07464 -0.129428,0.300489 -0.250906,0.604544 -0.363285,0.911602 -0.112379,0.307058 -0.215726,0.617159 -0.310575,0.930368"
       style="opacity:1;fill:#7678ed;fill-opacity:1;stroke-width:0.89832;paint-order:stroke fill markers"
       id="path238"
       sodipodi:nodetypes="ccssssscssc" />
    <path
       d="m 80.828901,105.92212 h -0.04858 -2.597774 c 0.0043,0.21167 0.007,0.42367 0.02067,0.63353 0.01993,0.30588 0.05002,0.60972 0.0894,0.9115 0.03139,0.24055 0.07343,0.47873 0.116788,0.7165 0.03947,-0.002 0.08013,-0.001 0.119373,-0.004 0.20247,-0.0154 0.401836,-0.0381 0.597896,-0.0681 0.196061,-0.03 0.388613,-0.067 0.577226,-0.11087 0.188613,-0.0439 0.373297,-0.0944 0.553455,-0.15141 0.180157,-0.057 0.355882,-0.12032 0.526582,-0.18965 0.06504,-0.0264 0.125581,-0.0579 0.189136,-0.086 -0.01501,-0.0978 -0.03481,-0.19448 -0.04754,-0.29287 -0.03503,-0.27076 -0.06133,-0.54352 -0.07906,-0.8182 -0.01154,-0.17875 -0.01346,-0.35954 -0.01757,-0.53987 z"
       style="opacity:1;fill:#7678ed;fill-opacity:1;stroke-width:0.860157;paint-order:stroke fill markers"
       id="path236" />
    <path
       d="m 122.91756,114.15324 c -0.14698,-0.0399 -0.29814,-0.0693 -0.44287,-0.11472 -0.37241,-0.11695 -0.73721,-0.25221 -1.09295,-0.40411 -0.31399,-0.13408 -0.61824,-0.28618 -0.91778,-0.44597 -0.0571,0.15279 -0.11016,0.30776 -0.17053,0.45889 -0.12973,0.32477 -0.26683,0.64586 -0.41083,0.96221 -0.14398,0.31636 -0.29485,0.62837 -0.45268,0.93586 -0.15783,0.30749 -0.32279,0.61029 -0.49403,0.90847 -0.17123,0.29818 -0.3491,0.59163 -0.5333,0.88005 -0.1842,0.28843 -0.3748,0.57185 -0.57154,0.85008 -0.19674,0.27823 -0.39939,0.55097 -0.60823,0.81856 -0.20884,0.26758 -0.4239,0.53001 -0.64441,0.78651 -0.2205,0.2565 -0.44677,0.50744 -0.67851,0.75241 -0.23174,0.24497 -0.46852,0.48376 -0.71107,0.71675 -0.24254,0.23299 -0.49071,0.46001 -0.74362,0.68058 -0.25291,0.22057 -0.51075,0.43463 -0.7736,0.64234 -0.26284,0.2077 -0.5307,0.40918 -0.80305,0.60358 -0.27235,0.1944 -0.54902,0.38211 -0.83044,0.56276 -0.28142,0.18064 -0.56725,0.35393 -0.85731,0.52038 -0.29006,0.16644 -0.58437,0.32569 -0.88263,0.47749 -0.29826,0.1518 -0.6009,0.29633 -0.90692,0.43305 -0.30603,0.13671 -0.61578,0.26587 -0.92915,0.38705 -0.31336,0.12118 -0.63006,0.23432 -0.95033,0.33952 -0.32027,0.1052 -0.64374,0.20216 -0.97048,0.29093 -0.32674,0.0888 -0.65683,0.16942 -0.9896,0.24133 -0.33278,0.0719 -0.66828,0.13506 -1.00666,0.18966 -0.33838,0.0546 -0.67964,0.10061 -1.02319,0.13746 -0.34355,0.0368 -0.68938,0.0645 -1.03767,0.0832 -0.34829,0.0187 -0.69902,0.0284 -1.05161,0.0284 -0.35256,0 -0.70336,-0.01 -1.05162,-0.0284 -0.34826,-0.0186 -0.694135,-0.0464 -1.03766,-0.0832 -0.343524,-0.0369 -0.68432,-0.0829 -1.022676,-0.13746 -0.338357,-0.0546 -0.674419,-0.11774 -1.007174,-0.18966 -0.332755,-0.0719 -0.662367,-0.15255 -0.989087,-0.24133 -0.32672,-0.0888 -0.650232,-0.18573 -0.970483,-0.29093 -0.320253,-0.1052 -0.637496,-0.21834 -0.950847,-0.33952 -0.31335,-0.12118 -0.623126,-0.25034 -0.929142,-0.38705 -0.306016,-0.13672 -0.608156,-0.28125 -0.906405,-0.43305 -0.298247,-0.1518 -0.592586,-0.31105 -0.882633,-0.47749 -0.290047,-0.16645 -0.5759,-0.33974 -0.857312,-0.52038 -0.281412,-0.18065 -0.558097,-0.36836 -0.83044,-0.56276 -0.272345,-0.1944 -0.540209,-0.39588 -0.803052,-0.60358 -0.262843,-0.20771 -0.520688,-0.42177 -0.773596,-0.64234 -0.252909,-0.22057 -0.500567,-0.44759 -0.743107,-0.68058 -0.242542,-0.23299 -0.479844,-0.47178 -0.711585,-0.71675 -0.23174,-0.24497 -0.458006,-0.49591 -0.678511,-0.75241 -0.220507,-0.2565 -0.435567,-0.51893 -0.644406,-0.78651 -0.208837,-0.26759 -0.411493,-0.54033 -0.608231,-0.81856 -0.196738,-0.27823 -0.387339,-0.56165 -0.571541,-0.85008 -0.184204,-0.28842 -0.362065,-0.58187 -0.533301,-0.88005 -0.171237,-0.29818 -0.336191,-0.60098 -0.494027,-0.90847 -0.157836,-0.30749 -0.308684,-0.6195 -0.452685,-0.93586 -0.144003,-0.31635 -0.281093,-0.63744 -0.410828,-0.96221 -0.01734,-0.0434 -0.03202,-0.0882 -0.04909,-0.13178 -0.321381,0.13392 -0.647882,0.25811 -0.982885,0.36329 -0.367202,0.11529 -0.741745,0.21317 -1.123446,0.29197 -0.143259,0.0296 -0.292004,0.0429 -0.437183,0.0672 0.04997,0.13098 0.09516,0.26444 0.147278,0.39429 0.146001,0.36371 0.300413,0.72292 0.462504,1.07745 0.162092,0.35454 0.331827,0.7042 0.50953,1.04903 0.177702,0.34484 0.363204,0.68496 0.556038,1.01958 0.192834,0.33462 0.392996,0.66366 0.60048,0.98754 0.207486,0.32388 0.422231,0.64235 0.643889,0.95498 0.221656,0.31262 0.450397,0.61951 0.685746,0.92036 0.235349,0.30083 0.477493,0.59563 0.726054,0.88418 0.248561,0.28855 0.503518,0.57072 0.764811,0.84646 0.261293,0.27573 0.528989,0.5453 0.802535,0.8077 0.273546,0.2624 0.552873,0.51782 0.838192,0.76636 0.285317,0.24855 0.576721,0.48982 0.873331,0.72399 0.296612,0.23417 0.598465,0.46131 0.905888,0.68058 0.307425,0.21927 0.62017,0.43074 0.937928,0.63458 0.317756,0.20386 0.640805,0.40016 0.968416,0.58808 0.327611,0.18793 0.659855,0.36752 0.996838,0.53899 0.336985,0.17147 0.678349,0.33488 1.024227,0.48937 0.345879,0.1545 0.696289,0.30018 1.050582,0.43719 0.354293,0.137 0.712643,0.26496 1.07487,0.38395 0.362226,0.11899 0.728443,0.22924 1.098124,0.3297 0.369681,0.10046 0.742656,0.19144 1.119312,0.27285 0.376654,0.0814 0.756831,0.15314 1.139982,0.21497 0.383149,0.0618 0.769421,0.11381 1.158585,0.15555 0.389166,0.0417 0.781455,0.0729 1.176153,0.094 0.3947,0.0211 0.7919,0.032 1.19166,0.032 0.39978,0 0.79693,-0.0109 1.19166,-0.032 0.39472,-0.0211 0.78697,-0.0523 1.17615,-0.094 0.38919,-0.0417 0.77542,-0.0937 1.15859,-0.15555 0.38317,-0.0618 0.76331,-0.13357 1.13998,-0.21497 0.37667,-0.0814 0.75014,-0.17239 1.11983,-0.27285 0.36969,-0.10046 0.73537,-0.21071 1.09761,-0.3297 0.36223,-0.11899 0.72108,-0.24695 1.07538,-0.38395 0.3543,-0.13701 0.70418,-0.28269 1.05007,-0.43719 0.34588,-0.15449 0.68775,-0.3179 1.02474,-0.48937 0.33699,-0.17147 0.66923,-0.35106 0.99684,-0.53899 0.32761,-0.18792 0.65014,-0.38422 0.9679,-0.58808 0.31776,-0.20384 0.6305,-0.41531 0.93793,-0.63458 0.30742,-0.21927 0.60979,-0.44641 0.9064,-0.68058 0.29661,-0.23417 0.5875,-0.47544 0.87282,-0.72399 0.28531,-0.24854 0.56516,-0.50396 0.8387,-0.76636 0.27355,-0.2624 0.54073,-0.53197 0.80202,-0.8077 0.26129,-0.27574 0.51677,-0.55791 0.76533,-0.84646 0.24856,-0.28855 0.49019,-0.58335 0.72554,-0.88418 0.23534,-0.30085 0.46409,-0.60774 0.68574,-0.92036 0.22165,-0.31263 0.43641,-0.6311 0.64389,-0.95498 0.20748,-0.32388 0.40766,-0.65292 0.60048,-0.98754 0.19283,-0.33462 0.37835,-0.67474 0.55604,-1.01958 0.1777,-0.34483 0.34745,-0.69449 0.50953,-1.04903 0.16209,-0.35453 0.31651,-0.71374 0.4625,-1.07745 0.0633,-0.15778 0.11905,-0.3196 0.17932,-0.47904 z"
       style="opacity:1;fill:#7678ed;fill-opacity:1;paint-order:stroke fill markers"
       id="path235" />
    <path
       d="m 99.375846,100.42539 1.476394,2.26498 c 0.0374,-0.0102 0.072,-0.028 0.11007,-0.0362 0.15249,-0.033 0.30988,-0.0501 0.47026,-0.0501 0.1605,0 0.3177,0.0172 0.47025,0.0501 0.0527,0.0114 0.10097,0.035 0.15245,0.0501 0.44302,-0.66411 1.00857,-1.51142 1.49862,-2.24586 -0.0535,-0.0263 -0.10464,-0.0568 -0.15917,-0.0811 -0.15026,-0.0671 -0.30443,-0.12656 -0.46198,-0.17829 -0.15756,-0.0517 -0.31861,-0.0953 -0.48266,-0.13074 -0.16405,-0.0354 -0.33101,-0.0629 -0.50075,-0.08113 -0.16974,-0.0182 -0.34214,-0.02739 -0.51676,-0.02739 -0.17463,0 -0.34702,0.0092 -0.51677,0.02739 -0.16974,0.01819 -0.33668,0.04569 -0.50074,0.08113 -0.16406,0.0354 -0.32508,0.079 -0.482658,0.13074 -0.157575,0.0517 -0.311707,0.11122 -0.461988,0.17829 -0.03235,0.0144 -0.06257,0.0329 -0.09457,0.048 z"
       style="opacity:1;fill:#7678ed;fill-opacity:1;paint-order:stroke fill markers"
       id="path219" />
    <path
       d="m 95.930062,95.139929 1.437638,2.205034 c 0.02398,-0.01409 0.04616,-0.03112 0.07028,-0.04496 0.238063,-0.136653 0.483283,-0.261457 0.734322,-0.373621 0.251039,-0.112163 0.507925,-0.211401 0.770496,-0.297656 0.26257,-0.08625 0.53091,-0.159151 0.803568,-0.218074 0.272654,-0.05892 0.549654,-0.104187 0.830954,-0.134359 0.2813,-0.03017 0.56675,-0.04547 0.85525,-0.04547 0.28856,0 0.57389,0.0153 0.85524,0.04547 0.28136,0.03017 0.55877,0.07544 0.83148,0.134359 0.2727,0.05892 0.54044,0.13182 0.80305,0.218074 0.26261,0.08626 0.51994,0.185493 0.77101,0.297656 1.49919,0.669728 2.50358,-1.773191 1.05058,-2.422074 -0.33076,-0.147711 -0.66994,-0.278927 -1.01647,-0.392741 -0.34653,-0.113814 -0.70044,-0.209941 -1.06092,-0.287838 -0.36048,-0.0779 -0.72758,-0.137291 -1.10019,-0.17725 -0.37262,-0.03996 -0.75084,-0.06046 -1.13378,-0.06046 -0.38288,0 -0.76121,0.0205 -1.13378,0.06046 -0.372577,0.03996 -0.73922,0.09935 -1.099677,0.17725 -0.360457,0.0779 -0.714395,0.174024 -1.060917,0.287838 -0.346523,0.113814 -0.685705,0.24503 -1.016476,0.392741 -0.33077,0.147711 -0.653147,0.311856 -0.966349,0.491443 -0.07742,0.04439 -0.149032,0.09792 -0.225309,0.144178 z"
       style="opacity:1;fill:#7678ed;fill-opacity:1;paint-order:stroke fill markers"
       id="path217"
       sodipodi:nodetypes="cccssssssssssssssssssssc" />
    <path
       d="m 92.505981,89.88702 1.438156,2.20555 c 0.205626,-0.132537 0.405365,-0.274604 0.617533,-0.396358 0.409083,-0.234756 0.829881,-0.44904 1.261422,-0.641822 0.43154,-0.192781 0.873959,-0.363795 1.3255,-0.512113 0.451541,-0.148318 0.912224,-0.273804 1.381311,-0.375171 0.469087,-0.101367 0.946227,-0.179066 1.430404,-0.230994 0.484173,-0.05193 0.975453,-0.07803 1.472263,-0.07803 0.49687,0 0.98803,0.0261 1.47226,0.07803 0.48423,0.05193 0.96128,0.129627 1.4304,0.230994 0.46913,0.101367 0.93027,0.226853 1.38183,0.375171 0.45157,0.148318 0.89395,0.319332 1.3255,0.512113 4.42077,1.9748 4.43096,-0.913052 1.05007,-2.423107 -0.51127,-0.228352 -1.03495,-0.431302 -1.57045,-0.607199 -0.5355,-0.175896 -1.08278,-0.32458 -1.63969,-0.444934 -0.55691,-0.120353 -1.12363,-0.212164 -1.69912,-0.273885 -0.28775,-0.03086 -0.57786,-0.05414 -0.86972,-0.06976 -0.29186,-0.01562 -0.58546,-0.02377 -0.88108,-0.02377 -0.2956,0 -0.58925,0.0081 -0.88108,0.02377 -0.29184,0.01562 -0.581995,0.0389 -0.869719,0.06976 -0.575448,0.06172 -1.14224,0.153532 -1.699121,0.273885 -0.556881,0.120354 -1.103691,0.269038 -1.639177,0.444934 -0.535486,0.175897 -1.0597,0.378847 -1.570963,0.607199 -0.511263,0.228351 -1.009754,0.482443 -1.493966,0.76016 -0.26565,0.152362 -0.515713,0.329076 -0.772563,0.495577 z"
       style="opacity:1;fill:#7678ed;fill-opacity:1;paint-order:stroke fill markers"
       id="path215"
       sodipodi:nodetypes="ccsssssssssssssssscsssssc" />
    <path
       d="m 89.072599,84.619641 1.438672,2.207617 c 0.105848,-0.07078 0.209117,-0.145169 0.31626,-0.21394 0.281412,-0.180628 0.567265,-0.354469 0.857312,-0.520899 0.290047,-0.166429 0.584385,-0.325703 0.882633,-0.47749 0.298249,-0.151786 0.600389,-0.296349 0.906405,-0.433048 0.306016,-0.136699 0.615791,-0.265373 0.929142,-0.38654 0.313351,-0.121167 0.630594,-0.23484 0.950847,-0.340031 0.320252,-0.105191 0.643763,-0.202168 0.970483,-0.290938 0.32672,-0.08877 0.656332,-0.168907 0.989087,-0.240812 0.332755,-0.07191 0.668817,-0.135574 1.007174,-0.19017 0.338357,-0.0546 0.679151,-0.100101 1.022676,-0.136942 0.343525,-0.03684 0.6894,-0.06507 1.03766,-0.08372 0.34826,-0.01864 0.69906,-0.02791 1.05162,-0.02791 0.35259,0 0.70332,0.0093 1.05161,0.02791 0.34829,0.01864 0.69412,0.04687 1.03767,0.08372 0.34355,0.03684 0.68481,0.08235 1.02319,0.136942 0.33838,0.0546 0.67388,0.118264 1.00666,0.19017 0.33277,0.07191 0.66286,0.152041 0.9896,0.240812 0.32674,0.08877 0.65021,0.185747 0.97048,0.290938 0.32027,0.105191 0.63697,0.218864 0.95033,0.340031 0.31337,0.121167 0.62312,0.249841 0.92915,0.38654 0.30602,0.136699 0.60866,0.281262 0.90692,0.433048 0.29826,0.151787 0.59257,0.311061 0.88263,0.47749 2.48548,1.426115 3.82572,-0.846611 1.28261,-2.305285 -0.32761,-0.18791 -0.65985,-0.367529 -0.99684,-0.538985 -0.33699,-0.171457 -0.67886,-0.334375 -1.02474,-0.488859 -0.34589,-0.154485 -0.69577,-0.300708 -1.05007,-0.4377 -0.3543,-0.136992 -0.71315,-0.264975 -1.07538,-0.383956 -0.36224,-0.11898 -0.72792,-0.228729 -1.09761,-0.329179 -0.36969,-0.100449 -0.74316,-0.191453 -1.11983,-0.272851 -0.37667,-0.0814 -0.75681,-0.153146 -1.13998,-0.214974 -0.38317,-0.06183 -0.7694,-0.113808 -1.15859,-0.155546 -0.38918,-0.04174 -0.78143,-0.07344 -1.17615,-0.09457 -0.39473,-0.02113 -0.79188,-0.03152 -1.19166,-0.03152 -0.39976,0 -0.79696,0.01039 -1.19166,0.03152 -0.394701,0.02113 -0.78699,0.05283 -1.176156,0.09457 -0.389165,0.04174 -0.775435,0.09372 -1.158585,0.155546 -0.383151,0.06183 -0.763327,0.133575 -1.139982,0.214974 -0.376656,0.0814 -0.749631,0.172402 -1.119312,0.272851 -0.369681,0.10045 -0.735897,0.210199 -1.098124,0.329179 -0.362227,0.118981 -0.720577,0.246964 -1.07487,0.383956 -0.354293,0.136992 -0.704703,0.283215 -1.050582,0.4377 -0.345878,0.154484 -0.687242,0.317402 -1.024227,0.488859 -0.336984,0.171456 -0.669227,0.351075 -0.996838,0.538985 -0.327611,0.18791 -0.650659,0.384234 -0.968416,0.588078 -0.122382,0.07851 -0.240348,0.16361 -0.361219,0.244429 z"
       style="opacity:1;fill:#7678ed;fill-opacity:1;paint-order:stroke fill markers"
       id="path213"
       sodipodi:nodetypes="ccsssssssssssscsssssssssssssssssssssssssssssssc" />
  </g>
</svg>
